<svg width="3086" height="783" viewBox="0 0 3086 783" fill="none" xmlns="http://www.w3.org/2000/svg">
<path fill-rule="evenodd" clip-rule="evenodd" d="M1064 365.539C1063.24 365.539 1062.66 366.241 1062.8 366.991C1063.59 371.004 1064 375.156 1064 379.408C1064 411.071 1038.52 426.778 1008.79 430.43C1007.77 430.554 1007 431.411 1007 432.433V754.634C1007 761.262 1012.37 766.634 1019 766.634H1282.95C1306.71 766.634 1328.27 761.586 1347.64 751.484C1367.01 740.945 1382.41 726.232 1393.85 707.351C1405.73 688.469 1411.68 666.511 1411.68 641.48C1411.68 624.354 1408.15 608.324 1401.11 593.394C1394.51 578.465 1385.27 565.291 1373.39 553.872C1365.14 545.648 1355.99 538.792 1345.92 533.302C1341.36 530.817 1341.15 523.785 1345.55 521.02C1353.56 515.978 1360.86 510.023 1367.45 503.151C1377.57 493.05 1385.27 481.414 1390.55 468.24C1396.27 455.066 1399.13 441.233 1399.13 426.741C1399.13 402.148 1393.41 380.853 1381.97 362.847C1370.97 344.842 1356 330.79 1337.08 320.689C1318.59 310.589 1297.91 305.539 1275.02 305.539H1122.43C1121.32 305.539 1120.43 306.444 1120.4 307.548C1119.42 342.899 1092.47 365.539 1064 365.539ZM1117.91 663.074C1117.91 669.702 1123.28 675.074 1129.91 675.074H1253.9C1263.14 675.074 1271.28 672.877 1278.32 668.487C1285.81 664.097 1291.75 658.169 1296.15 650.702C1300.55 643.235 1302.75 635.114 1302.75 626.33C1302.75 617.108 1300.55 608.982 1296.15 601.958C1291.75 594.491 1285.81 588.563 1278.32 584.172C1271.28 579.782 1263.14 577.585 1253.9 577.585H1129.91C1123.28 577.585 1117.91 582.958 1117.91 589.585V663.074ZM1117.91 477.319C1117.91 483.946 1123.28 489.319 1129.91 489.319H1242.68C1251.48 489.319 1259.18 487.342 1265.78 483.39C1272.82 479 1278.32 473.51 1282.29 466.922C1286.25 459.898 1288.23 452.21 1288.23 443.868C1288.23 435.084 1286.25 427.4 1282.29 420.813C1278.32 413.788 1272.82 408.297 1265.78 404.345C1259.18 399.955 1251.48 397.758 1242.68 397.758H1129.91C1123.28 397.758 1117.91 403.131 1117.91 409.758V477.319ZM1465.14 766.634C1458.51 766.634 1453.14 761.262 1453.14 754.634V528.182C1453.14 497.444 1461.94 473.289 1479.55 455.724C1497.15 438.16 1521.58 429.376 1552.82 429.376H1639.19C1645.81 429.376 1651.19 434.749 1651.19 441.376V509.335C1651.19 515.963 1645.81 521.335 1639.19 521.335H1577.91C1571.75 521.335 1566.47 523.532 1562.07 527.922C1557.67 531.874 1555.46 537.144 1555.46 543.731V754.634C1555.46 761.262 1550.09 766.634 1543.46 766.634H1465.14ZM1861.59 774.539C1826.82 774.539 1795.57 766.855 1767.85 751.484C1740.12 736.113 1718.11 715.034 1701.83 688.248C1685.99 661.462 1678.06 631.379 1678.06 598.005C1678.06 564.19 1685.99 534.111 1701.83 507.762C1718.11 480.976 1740.12 459.898 1767.85 444.526C1795.57 428.717 1826.82 420.813 1861.59 420.813C1896.35 420.813 1927.38 428.717 1954.67 444.526C1982.4 459.898 2004.18 480.976 2020.03 507.762C2036.31 534.111 2044.45 564.19 2044.45 598.005C2044.45 631.379 2036.31 661.462 2020.03 688.248C2004.18 715.034 1982.4 736.113 1954.67 751.484C1926.94 766.855 1895.92 774.539 1861.59 774.539ZM1861.59 685.613C1877.87 685.613 1891.96 681.661 1903.84 673.757C1915.72 665.852 1924.96 655.313 1931.56 642.139C1938.17 628.965 1941.47 614.035 1941.47 597.347C1941.47 581.1 1938.17 566.387 1931.56 553.213C1924.96 540.039 1915.72 529.5 1903.84 521.595C1891.96 513.691 1877.87 509.738 1861.59 509.738C1845.3 509.738 1831 513.691 1818.68 521.595C1806.79 529.5 1797.55 540.039 1790.95 553.213C1784.35 566.387 1781.05 581.1 1781.05 597.347C1781.05 614.035 1784.35 628.965 1790.95 642.139C1797.55 655.313 1806.79 665.852 1818.68 673.757C1831 681.661 1845.3 685.613 1861.59 685.613ZM2099.29 766.634C2092.66 766.634 2087.29 761.262 2087.29 754.634V572.316C2087.29 544.212 2094.11 518.74 2107.76 495.906C2121.4 473.072 2140.76 454.845 2165.85 441.233C2191.38 427.621 2221.52 420.813 2256.29 420.813C2291.5 420.813 2321.43 427.621 2346.07 441.233C2371.16 454.845 2390.3 473.072 2403.51 495.906C2416.71 518.74 2423.31 544.212 2423.31 572.316V754.634C2423.31 761.262 2417.94 766.634 2411.31 766.634H2332.99C2326.36 766.634 2320.99 761.262 2320.99 754.634V574.951C2320.99 563.094 2318.13 552.334 2312.4 542.674C2306.68 532.572 2298.76 524.668 2288.64 518.96C2278.96 512.811 2267.96 509.738 2255.63 509.738C2242.87 509.738 2231.43 512.811 2221.3 518.96C2211.62 524.668 2203.92 532.572 2198.2 542.674C2192.48 552.334 2189.61 563.094 2189.61 574.951V754.635C2189.61 761.262 2184.24 766.634 2177.61 766.634H2099.29ZM2606.07 766.634C2574.83 766.634 2550.4 757.85 2532.8 740.286C2515.19 722.28 2506.39 698.129 2506.39 667.828V524.373C2506.39 517.746 2501.02 512.373 2494.39 512.373H2462.94C2456.31 512.373 2450.94 507.001 2450.94 500.373V440.717C2450.94 434.09 2456.31 428.717 2462.94 428.717H2494.39C2501.02 428.717 2506.39 423.345 2506.39 416.717V358.379C2506.39 351.752 2511.76 346.379 2518.39 346.379H2597.38C2604 346.379 2609.38 351.752 2609.38 358.379V416.717C2609.38 423.345 2614.75 428.717 2621.38 428.717H2690.46C2697.08 428.717 2702.46 434.09 2702.46 440.717V500.373C2702.46 507.001 2697.08 512.373 2690.46 512.373H2621.38C2614.75 512.373 2609.38 517.746 2609.38 524.373V661.9C2609.38 667.17 2611.14 671.781 2614.66 675.733C2618.62 679.247 2623.24 681.003 2628.52 681.003H2690.46C2697.08 681.003 2702.46 686.375 2702.46 693.003V754.634C2702.46 761.262 2697.08 766.634 2690.46 766.634H2606.07ZM2903.14 774.539C2868.37 774.539 2837.12 766.855 2809.4 751.484C2781.67 736.113 2759.66 715.034 2743.38 688.248C2727.54 661.462 2719.61 631.379 2719.61 598.005C2719.61 564.19 2727.54 534.111 2743.38 507.762C2759.66 480.976 2781.67 459.898 2809.4 444.526C2837.12 428.717 2868.37 420.813 2903.14 420.813C2937.9 420.813 2968.93 428.717 2996.22 444.526C3023.95 459.898 3045.73 480.976 3061.57 507.762C3077.86 534.111 3086 564.19 3086 598.005C3086 631.379 3077.86 661.462 3061.57 688.248C3045.73 715.034 3023.95 736.113 2996.22 751.484C2968.49 766.855 2937.47 774.539 2903.14 774.539ZM2903.14 685.613C2919.42 685.613 2933.5 681.661 2945.39 673.757C2957.27 665.852 2966.51 655.313 2973.11 642.139C2979.72 628.965 2983.02 614.035 2983.02 597.347C2983.02 581.1 2979.72 566.387 2973.11 553.213C2966.51 540.039 2957.27 529.5 2945.39 521.595C2933.5 513.691 2919.42 509.738 2903.14 509.738C2886.85 509.738 2872.55 513.691 2860.23 521.595C2848.34 529.5 2839.1 540.039 2832.5 553.213C2825.9 566.387 2822.6 581.1 2822.6 597.347C2822.6 614.035 2825.9 628.965 2832.5 642.139C2839.1 655.313 2848.34 665.852 2860.23 673.757C2872.55 681.661 2886.85 685.613 2903.14 685.613Z" fill="white"/>
<path d="M1050.4 103.519L992.5 209.287H887.528L876.321 458.332L864.367 471.084L847.929 768.513H638.358L629.393 755.01L620.8 768.513H428.04V658.242L6.43604 781.986C1.29289 783.496 -2.29876 776.952 1.73682 773.424L412.699 414.192L534.133 296.303L680.572 292.553L767.986 56.2598L838.59 0L1050.4 103.519ZM470.941 398.379L399.039 466.18L398.566 466.626L398.782 467.239L451.706 617.746V742.877H521.823V614.073L586.025 501.303L586.424 500.602L585.824 500.062L472.294 398.361L471.61 397.748L470.941 398.379ZM611.493 612.818L535.807 624.119L534.955 624.246V742.876H601.288V651.624L612.598 614.097L613.053 612.586L611.493 612.818ZM845.69 34.542L790.904 73.4844L790.647 73.667L790.541 73.9629L701.76 322.771H546.896L546.603 323.062L482.27 387.097L481.51 387.853L482.317 388.559L606.567 497.24L538.883 609.525L537.81 611.306L539.872 611.032L652.269 596.115V742.876H733.716L733.74 741.899L737.516 584.016L847.07 437.371L847.25 437.131L847.267 436.831L862.292 180.999H976.498L976.787 180.505L1015.91 113.747L1016.47 112.796L1015.47 112.333L846.688 34.4492L846.162 34.207L845.69 34.542ZM834.119 477.603L750.864 589.013L750.641 589.31L750.667 589.681L761.351 741.94L761.417 742.871H824.524L824.566 741.914L835.918 478.244L836.058 475.007L834.119 477.603ZM383.943 473.678L69.8452 737.347L70.7817 739.068L437.86 626.067L438.854 625.762L438.509 624.78L385.529 474.111L385.049 472.748L383.943 473.678Z" fill="white"/>
</svg>
